<?xml version="1.0" encoding="utf-8"?>
<!-- Generator: Adobe Illustrator 27.7.0, SVG Export Plug-In . SVG Version: 6.00 Build 0)  -->
<svg version="1.1" id="Capa_1" xmlns="http://www.w3.org/2000/svg" xmlns:xlink="http://www.w3.org/1999/xlink" x="0px" y="0px"
	 viewBox="0 0 1303.9 481.9" style="enable-background:new 0 0 1303.9 481.9;" xml:space="preserve">
<style type="text/css">
	.st0{display:none;}
	.st1{display:inline;fill:#00E1FF;}
	.st2{display:inline;fill:#FFFFFF;}
	.st3{display:inline;}
	.st4{display:inline;fill:none;stroke:#FFFFFF;stroke-width:3.9414;stroke-miterlimit:10;}
	.st5{display:inline;fill:none;stroke:#000000;stroke-width:3.9466;stroke-miterlimit:10;}
	.st6{fill:#00BFFF;}
</style>
<g id="cyan-blanco" class="st0">
	<polygon class="st1" points="76.1,140.7 76.1,231.8 63.2,240.1 63.2,148.9 42.9,161.9 3.1,187.2 3.1,355.4 136.6,270.4 
		136.6,102.2 	"/>
	<polygon class="st2" points="3.1,78.5 42.9,103.8 42.9,161.9 63.2,149 63.2,240.1 76.1,231.8 76.1,140.7 136.6,102.2 3.1,17.2 	"/>
	<polygon class="st1" points="270.1,17.2 136.6,102.2 220.6,155.6 270.1,124.1 270.1,78.5 205.4,119.7 205.4,104.7 270.1,63.4 	"/>
	<polygon class="st1" points="232.5,163.2 270.1,187.2 270.1,139.1 	"/>
	<polygon class="st2" points="136.6,102.2 136.6,270.4 270.1,355.4 270.1,278.8 197.6,232.5 197.6,217.4 270.1,263.7 270.1,187.2 
		220.6,155.6 	"/>
	<path class="st2" d="M454.4,163.7H470v61.9c0,20.1-10,29.7-26.8,29.7c-16.5,0-26.5-10.6-26.5-30.5v-61.2h15.5v-19.9h-51.9v19.9
		h14.2V226c0,33.4,19.9,49.6,48.8,49.6c28.5,0,48.4-16.1,48.4-50v-61.9h14.2v-19.9h-51.3v19.9H454.4z"/>
	<polygon class="st2" points="514.6,180.8 535.6,180.8 535.6,163.1 559.6,163.1 559.6,253.3 543.5,253.3 543.5,273.2 598,273.2 
		598,253.3 581.9,253.3 581.9,163.1 605.8,163.1 605.8,180.8 626.9,180.8 626.9,143.8 514.6,143.8 	"/>
	<polygon class="st2" points="714.2,253.5 675.7,253.5 675.7,217 714.8,217 714.8,198.1 675.7,198.1 675.7,163.5 714,163.5 
		714,180.8 735.3,180.8 735.3,143.8 638.7,143.8 638.7,163.7 653.4,163.7 653.4,253.3 638.7,253.3 638.7,273.2 735.5,273.2 
		735.5,236.2 714.2,236.2 	"/>
	<path class="st2" d="M870.4,253.1v-25.3h-21.3v16.1c-3.7,2.9-7.6,5.3-11.9,7.2c-3.9,1.7-8,2.9-12.5,3.4c-0.6,0.1-1.3,0.1-1.9,0.2
		c-1,0.1-2,0.1-3.1,0.2c-0.6,0-1.1,0-1.7,0.1c-27-0.2-44.9-20.7-45-46.4c0.1-25.7,18-46.2,45-46.4c0.6,0,1.1,0,1.7,0.1
		c1.1,0,2.1,0.1,3.1,0.2c0.6,0,1.3,0.1,1.9,0.2c4.4,0.6,8.6,1.8,12.5,3.4c4.3,1.8,8.3,4.2,11.9,7.2v16.1h21.3V164l0,0l0,0
		c-6.1-6.7-13.5-12.1-21.9-16c-5.3-2.6-11.6-4.5-18.6-5.6c-0.8-0.1-1.6-0.2-2.3-0.3c-1-0.1-2.1-0.2-3.2-0.3c-0.4,0-0.7-0.1-1.1-0.1
		c-1.6-0.1-3.2-0.2-4.8-0.2c-0.1,0-0.1,0-0.2,0c-0.1,0-0.2,0-0.2,0c-2.2,0-4.4,0.1-6.5,0.3c-0.5,0-0.9,0.1-1.4,0.1
		c-1.2,0.1-2.3,0.3-3.4,0.4c-31.7,4.5-54,27.1-56.5,60.1c-0.2,2-0.3,4-0.3,6.1s0.1,4.1,0.3,6.2c2.5,32.9,24.8,55.6,56.5,60
		c1.1,0.2,2.3,0.3,3.4,0.4c0.5,0.1,0.9,0.1,1.4,0.1c2.1,0.2,4.3,0.3,6.5,0.3c0.1,0,0.2,0,0.2,0s0.1,0,0.2,0c1.6,0,3.2-0.1,4.8-0.2
		c0.4,0,0.7-0.1,1.1-0.1c1.1-0.1,2.1-0.2,3.2-0.3c0.8-0.1,1.6-0.2,2.3-0.3c7.1-1.1,13.3-3,18.6-5.6
		C856.8,265.3,864.3,259.9,870.4,253.1L870.4,253.1L870.4,253.1L870.4,253.1L870.4,253.1z"/>
	<path class="st2" d="M389.9,316.9v62.5h24c20.4,0,33.1-12,33.1-31.2S434.2,317,413.9,317L389.9,316.9L389.9,316.9z M380.2,308.3
		h33.7c25,0,42.9,16,42.9,39.8s-17.9,39.8-42.9,39.8h-24v48h-9.7V308.3z"/>
	<path class="st2" d="M558.2,388.3c0-24.2-16.6-41.1-40-41.1c-23.4,0-40,17-40,41.1c0,24.2,16.6,41.1,40,41.1
		C541.6,429.5,558.2,412.5,558.2,388.3 M468.6,388.3c0-29,20.6-49.5,49.5-49.5c29,0,49.5,20.6,49.5,49.5c0,29.1-20.6,49.5-49.5,49.5
		C489.2,437.8,468.6,417.5,468.6,388.3"/>
	<path class="st2" d="M644.8,411.2c0,16-12,26.7-28.6,26.7c-18.3,0-31.8-12.2-31.8-30.5h9.5c0,14.3,8.6,22.5,22.3,22.5
		c11.2,0,19.2-7,19.2-18.7c0-29.7-50.1-10.5-50.1-47.4c0-14.9,12-25,28.2-25c18.1,0,30.3,11.6,30.3,30.3h-9.3
		c0-14.3-8.2-22.3-21-22.3c-11.6,0-19.4,6.3-19.4,17C594.2,392.7,644.8,373.1,644.8,411.2"/>
	<path class="st2" d="M751.7,386c0-22.7-16.6-38.9-40-38.9s-40,16.2-40,38.9c0,22.9,16.6,38.9,40,38.9
		C735.1,424.9,751.7,408.9,751.7,386 M712.8,461.8c23.6,0,38.9-16.2,38.9-41.1v-8c-8,12.8-22.1,20.6-40,20.6
		c-29,0-49.5-19.4-49.5-47.2c0-27.6,20.6-47.2,49.5-47.2c17.9,0,32,7.8,40,20.8v-18.9h9.5v80c0,29.1-17.7,49.5-48.4,49.5
		c-25.9,0-47.2-15-49.1-40h9.7C674.6,450.2,693,461.8,712.8,461.8"/>
	<polygon class="st2" points="786,340.7 795.5,340.7 795.5,354.4 827.1,340.7 827.1,350.2 795.5,363.7 795.5,435.9 786,435.9 	"/>
	<path class="st2" d="M923.2,388.3c0-24.2-16.6-41.1-40-41.1s-40,17-40,41.1c0,24.2,16.6,41.1,40,41.1
		C906.6,429.5,923.2,412.5,923.2,388.3 M833.6,388.3c0-29,20.6-49.5,49.5-49.5c17.9,0,32,8.2,40,21.7v-19.8h9.5v95.2h-9.5v-19.8
		c-8,13.5-22.1,21.7-40,21.7C854.2,437.8,833.6,417.5,833.6,388.3"/>
	<path class="st2" d="M1042,388.3c0-24.2-16.6-41.1-40-41.1s-40,17-40,41.1c0,24.2,16.6,41.1,40,41.1
		C1025.5,429.5,1042,412.5,1042,388.3 M952.5,388.3c0-29,20.6-49.5,49.5-49.5c17.9,0,32,8.2,40,21.7v-52.2h9.5v127.6h-9.5v-19.8
		c-8,13.5-22.1,21.7-40,21.7C973.1,437.8,952.5,417.5,952.5,388.3"/>
	<path class="st2" d="M1160.9,388.3c0-24.2-16.6-41.1-40-41.1s-40,17-40,41.1c0,24.2,16.6,41.1,40,41.1S1160.9,412.5,1160.9,388.3
		 M1071.4,388.3c0-29,20.6-49.5,49.5-49.5s49.5,20.6,49.5,49.5c0,29.1-20.6,49.5-49.5,49.5S1071.4,417.5,1071.4,388.3"/>
</g>
<g id="blanco-negro" class="st0">
	<polygon class="st2" points="76.1,140.7 76.1,231.8 63.2,240.1 63.2,148.9 42.9,161.9 3.1,187.2 3.1,355.4 136.6,270.4 
		136.6,102.2 	"/>
	<polygon class="st3" points="3.1,78.5 42.9,103.8 42.9,161.9 63.2,149 63.2,240.1 76.1,231.8 76.1,140.7 136.6,102.2 3.1,17.2 	"/>
	<polygon class="st2" points="270.1,17.2 136.6,102.2 220.6,155.6 270.1,124.1 270.1,78.5 205.4,119.7 205.4,104.7 270.1,63.4 	"/>
	<polygon class="st2" points="232.5,163.2 270.1,187.2 270.1,139.1 	"/>
	<polygon class="st3" points="136.6,102.2 136.6,270.4 270.1,355.4 270.1,278.8 197.6,232.5 197.6,217.4 270.1,263.7 270.1,187.2 
		220.6,155.6 	"/>
	<path class="st3" d="M454.4,163.7H470v61.9c0,20.1-10,29.7-26.8,29.7c-16.5,0-26.5-10.6-26.5-30.5v-61.2h15.5v-19.9h-51.9v19.9
		h14.2V226c0,33.4,19.9,49.6,48.8,49.6c28.5,0,48.4-16.1,48.4-50v-61.9h14.2v-19.9h-51.3v19.9H454.4z"/>
	<polygon class="st3" points="514.6,180.8 535.6,180.8 535.6,163.1 559.6,163.1 559.6,253.3 543.5,253.3 543.5,273.2 598,273.2 
		598,253.3 581.9,253.3 581.9,163.1 605.8,163.1 605.8,180.8 626.9,180.8 626.9,143.8 514.6,143.8 	"/>
	<polygon class="st3" points="714.2,253.5 675.7,253.5 675.7,217 714.8,217 714.8,198.1 675.7,198.1 675.7,163.5 714,163.5 
		714,180.8 735.3,180.8 735.3,143.8 638.7,143.8 638.7,163.7 653.4,163.7 653.4,253.3 638.7,253.3 638.7,273.2 735.5,273.2 
		735.5,236.2 714.2,236.2 	"/>
	<path class="st3" d="M870.4,253.1v-25.3h-21.3v16.1c-3.7,2.9-7.6,5.3-11.9,7.2c-3.9,1.7-8,2.9-12.5,3.4c-0.6,0.1-1.3,0.1-1.9,0.2
		c-1,0.1-2,0.1-3.1,0.2c-0.6,0-1.1,0-1.7,0.1c-27-0.2-44.9-20.7-45-46.4c0.1-25.7,18-46.2,45-46.4c0.6,0,1.1,0,1.7,0.1
		c1.1,0,2.1,0.1,3.1,0.2c0.6,0,1.3,0.1,1.9,0.2c4.4,0.6,8.6,1.8,12.5,3.4c4.3,1.8,8.3,4.2,11.9,7.2v16.1h21.3V164l0,0l0,0
		c-6.1-6.7-13.5-12.1-21.9-16c-5.3-2.6-11.6-4.5-18.6-5.6c-0.8-0.1-1.6-0.2-2.3-0.3c-1-0.1-2.1-0.2-3.2-0.3c-0.4,0-0.7-0.1-1.1-0.1
		c-1.6-0.1-3.2-0.2-4.8-0.2c-0.1,0-0.1,0-0.2,0c-0.1,0-0.2,0-0.2,0c-2.2,0-4.4,0.1-6.5,0.3c-0.5,0-0.9,0.1-1.4,0.1
		c-1.2,0.1-2.3,0.3-3.4,0.4c-31.7,4.5-54,27.1-56.5,60.1c-0.2,2-0.3,4-0.3,6.1s0.1,4.1,0.3,6.2c2.5,32.9,24.8,55.6,56.5,60
		c1.1,0.2,2.3,0.3,3.4,0.4c0.5,0.1,0.9,0.1,1.4,0.1c2.1,0.2,4.3,0.3,6.5,0.3c0.1,0,0.2,0,0.2,0s0.1,0,0.2,0c1.6,0,3.2-0.1,4.8-0.2
		c0.4,0,0.7-0.1,1.1-0.1c1.1-0.1,2.1-0.2,3.2-0.3c0.8-0.1,1.6-0.2,2.3-0.3c7-1.1,13.3-3,18.6-5.6
		C856.8,265.3,864.3,259.9,870.4,253.1L870.4,253.1L870.4,253.1L870.4,253.1L870.4,253.1z"/>
	<path class="st3" d="M389.9,316.9v62.5h24c20.4,0,33.1-12,33.1-31.2S434.2,317,413.9,317L389.9,316.9L389.9,316.9z M380.2,308.3
		h33.7c25,0,42.9,16,42.9,39.8s-17.9,39.8-42.9,39.8h-24v48h-9.7V308.3z"/>
	<path class="st3" d="M558.2,388.3c0-24.2-16.6-41.1-40-41.1s-40,17-40,41.1s16.6,41.1,40,41.1C541.6,429.4,558.2,412.5,558.2,388.3
		 M468.6,388.3c0-29,20.6-49.5,49.5-49.5c29,0,49.5,20.6,49.5,49.5c0,29.1-20.6,49.5-49.5,49.5C489.2,437.8,468.6,417.5,468.6,388.3
		"/>
	<path class="st3" d="M644.8,411.2c0,16-12,26.7-28.6,26.7c-18.3,0-31.8-12.2-31.8-30.5h9.5c0,14.3,8.6,22.5,22.3,22.5
		c11.2,0,19.2-7,19.2-18.7c0-29.7-50.1-10.5-50.1-47.4c0-14.9,12-25,28.2-25c18.1,0,30.3,11.6,30.3,30.3h-9.3
		c0-14.3-8.2-22.3-21-22.3c-11.6,0-19.4,6.3-19.4,17C594.2,392.7,644.8,373.1,644.8,411.2"/>
	<path class="st3" d="M751.7,386c0-22.7-16.6-38.9-40-38.9s-40,16.2-40,38.9c0,22.9,16.6,38.9,40,38.9
		C735.1,424.9,751.7,408.9,751.7,386 M712.8,461.8c23.6,0,38.9-16.2,38.9-41.1v-8c-8,12.8-22.1,20.6-40,20.6
		c-29,0-49.5-19.4-49.5-47.2c0-27.6,20.6-47.2,49.5-47.2c17.9,0,32,7.8,40,20.8v-18.9h9.5v80c0,29.1-17.7,49.5-48.4,49.5
		c-25.9,0-47.2-15.1-49.1-40h9.7C674.6,450.2,693,461.8,712.8,461.8"/>
	<polygon class="st3" points="786,340.7 795.5,340.7 795.5,354.4 827.1,340.7 827.1,350.2 795.5,363.7 795.5,435.9 786,435.9 	"/>
	<path class="st3" d="M923.2,388.3c0-24.2-16.6-41.1-40-41.1s-40,17-40,41.1s16.6,41.1,40,41.1C906.6,429.5,923.2,412.5,923.2,388.3
		 M833.6,388.3c0-29,20.6-49.5,49.5-49.5c17.9,0,32,8.2,40,21.7v-19.8h9.5v95.2h-9.5v-19.8c-8,13.5-22.1,21.7-40,21.7
		C854.2,437.8,833.6,417.5,833.6,388.3"/>
	<path class="st3" d="M1042,388.3c0-24.2-16.6-41.1-40-41.1s-40,17-40,41.1s16.6,41.1,40,41.1C1025.5,429.5,1042,412.5,1042,388.3
		 M952.5,388.3c0-29,20.6-49.5,49.5-49.5c17.9,0,32,8.2,40,21.7v-52.2h9.5v127.6h-9.5v-19.8c-8,13.5-22.1,21.7-40,21.7
		C973.1,437.8,952.5,417.5,952.5,388.3"/>
	<path class="st3" d="M1160.9,388.3c0-24.2-16.6-41.1-40-41.1s-40,17-40,41.1s16.6,41.1,40,41.1
		C1144.3,429.5,1160.9,412.5,1160.9,388.3 M1071.4,388.3c0-29,20.6-49.5,49.5-49.5s49.5,20.6,49.5,49.5c0,29.1-20.6,49.5-49.5,49.5
		S1071.4,417.5,1071.4,388.3"/>
</g>
<g id="blanco" class="st0">
	<path class="st2" d="M453.5,163.5H469v61.9c0,20-10,29.7-26.7,29.7c-16.5,0-26.5-10.6-26.5-30.5v-61.1h15.5v-19.8h-51.9v19.8h14.2
		v62.3c0,33.4,19.8,49.5,48.7,49.5c28.5,0,48.3-16.1,48.3-49.9v-61.9h14.2v-19.8h-51.3L453.5,163.5L453.5,163.5z"/>
	<polygon class="st2" points="513.6,180.6 534.6,180.6 534.6,162.9 558.6,162.9 558.6,253.1 542.5,253.1 542.5,272.9 596.9,272.9 
		596.9,253.1 580.8,253.1 580.8,162.9 604.8,162.9 604.8,180.6 625.8,180.6 625.8,143.6 513.6,143.6 	"/>
	<polygon class="st2" points="713.1,253.3 674.5,253.3 674.5,216.7 713.6,216.7 713.6,197.9 674.5,197.9 674.5,163.3 712.9,163.3 
		712.9,180.6 734.1,180.6 734.1,143.6 637.6,143.6 637.6,163.5 652.3,163.5 652.3,253.1 637.6,253.1 637.6,272.9 734.3,272.9 
		734.3,236 713.1,236 	"/>
	<path class="st2" d="M869.1,252.9v-25.3h-21.3v16.1c-3.7,2.9-7.6,5.3-11.9,7.2c-3.9,1.7-8,2.8-12.4,3.4c-0.6,0.1-1.3,0.1-1.9,0.2
		c-1,0.1-2,0.1-3.1,0.2c-0.6,0-1.1,0-1.7,0.1c-27-0.2-44.9-20.6-45-46.4c0.1-25.7,18-46.2,45-46.4c0.6,0,1.1,0,1.7,0.1
		c1.1,0,2.1,0.1,3.1,0.2c0.6,0,1.3,0.1,1.9,0.2c4.4,0.6,8.6,1.8,12.4,3.4c4.3,1.8,8.2,4.2,11.9,7.2V189h21.3v-25.3l0,0l0,0
		c-6.1-6.7-13.5-12.1-21.9-15.9c-5.3-2.6-11.6-4.5-18.6-5.6c-0.8-0.1-1.6-0.2-2.3-0.3c-1-0.1-2.1-0.2-3.2-0.3
		c-0.4,0-0.7-0.1-1.1-0.1c-1.6-0.1-3.1-0.2-4.8-0.2c-0.1,0-0.1,0-0.2,0c-0.1,0-0.2,0-0.2,0c-2.2,0-4.4,0.1-6.5,0.3
		c-0.5,0-0.9,0.1-1.4,0.1c-1.1,0.1-2.3,0.3-3.4,0.4c-31.7,4.5-54,27.1-56.4,60c-0.2,2-0.3,4-0.3,6.1s0.1,4.1,0.3,6.1
		c2.5,32.9,24.7,55.5,56.4,60c1.1,0.2,2.3,0.3,3.4,0.4c0.5,0.1,0.9,0.1,1.4,0.1c2.1,0.2,4.3,0.3,6.5,0.3c0.1,0,0.2,0,0.2,0
		s0.1,0,0.2,0c1.6,0,3.2-0.1,4.8-0.2c0.4,0,0.7-0.1,1.1-0.1c1.1-0.1,2.1-0.2,3.2-0.3c0.8-0.1,1.6-0.2,2.3-0.3c7-1.1,13.3-3,18.6-5.6
		C855.6,265,863,259.6,869.1,252.9L869.1,252.9L869.1,252.9L869.1,252.9L869.1,252.9z"/>
	<path class="st2" d="M389,316.6V379h24c20.4,0,33.1-12,33.1-31.2s-12.8-31.2-33.1-31.2L389,316.6L389,316.6z M379.3,308H413
		c24.9,0,42.8,16,42.8,39.8s-17.9,39.8-42.8,39.8h-24v48h-9.7V308z"/>
	<path class="st2" d="M557.1,388c0-24.2-16.6-41.1-40-41.1c-23.4,0-40,16.9-40,41.1s16.6,41.1,40,41.1
		C540.6,429.1,557.1,412.1,557.1,388 M467.7,388c0-28.9,20.6-49.5,49.5-49.5c28.9,0,49.5,20.6,49.5,49.5c0,29.1-20.6,49.5-49.5,49.5
		C488.2,437.4,467.7,417.1,467.7,388"/>
	<path class="st2" d="M643.7,410.8c0,16-12,26.6-28.6,26.6c-18.3,0-31.8-12.2-31.8-30.5h9.5c0,14.3,8.6,22.5,22.3,22.5
		c11.2,0,19.2-7,19.2-18.7c0-29.7-50.1-10.5-50.1-47.4c0-14.8,12-24.9,28.2-24.9c18.1,0,30.3,11.6,30.3,30.3h-9.3
		c0-14.3-8.2-22.3-20.9-22.3c-11.6,0-19.4,6.3-19.4,16.9C593.1,392.3,643.7,372.7,643.7,410.8"/>
	<path class="st2" d="M750.5,385.7c0-22.7-16.6-38.8-40-38.8s-40,16.2-40,38.8c0,22.8,16.6,38.8,40,38.8
		C734,424.5,750.5,408.5,750.5,385.7 M711.7,461.4c23.6,0,38.8-16.2,38.8-41.1v-8c-8,12.8-22.1,20.6-40,20.6
		c-28.9,0-49.5-19.4-49.5-47.2c0-27.6,20.6-47.2,49.5-47.2c17.9,0,32,7.8,40,20.7v-18.8h9.5v79.9c0,29.1-17.7,49.5-48.3,49.5
		c-25.9,0-47.2-15-49.1-40h9.7C673.4,449.8,691.9,461.4,711.7,461.4"/>
	<polygon class="st2" points="784.8,340.4 794.3,340.4 794.3,354.1 825.9,340.4 825.9,349.9 794.3,363.4 794.3,435.5 784.8,435.5 	
		"/>
	<path class="st2" d="M921.8,388c0-24.2-16.6-41.1-40-41.1s-40,16.9-40,41.1s16.6,41.1,40,41.1S921.8,412.1,921.8,388 M832.4,388
		c0-28.9,20.6-49.5,49.5-49.5c17.9,0,32,8.2,40,21.7v-19.8h9.5v95.2h-9.5v-19.8c-8,13.5-22.1,21.7-40,21.7
		C852.9,437.4,832.4,417.1,832.4,388"/>
	<path class="st2" d="M1040.6,388c0-24.2-16.6-41.1-40-41.1s-40,16.9-40,41.1s16.6,41.1,40,41.1S1040.6,412.1,1040.6,388 M951.1,388
		c0-28.9,20.6-49.5,49.5-49.5c17.9,0,32,8.2,40,21.7V308h9.5v127.5h-9.5v-19.8c-8,13.5-22.1,21.7-40,21.7
		C971.7,437.4,951.1,417.1,951.1,388"/>
	<path class="st2" d="M1159.4,388c0-24.2-16.6-41.1-40-41.1s-40,16.9-40,41.1s16.6,41.1,40,41.1S1159.4,412.1,1159.4,388
		 M1069.9,388c0-28.9,20.6-49.5,49.5-49.5s49.5,20.6,49.5,49.5c0,29.1-20.6,49.5-49.5,49.5C1090.5,437.4,1069.9,417.1,1069.9,388"/>
	<polygon class="st4" points="75.9,141.2 75.9,231.8 63.1,240 63.1,149.5 42.9,162.3 3.4,187.4 3.4,354.5 136,270.1 136,103 	"/>
	<polygon class="st2" points="3.1,78.9 42.8,104.1 42.8,162 63,149.1 63,240 75.9,231.8 75.9,140.9 136.2,102.5 3.1,17.7 	"/>
	<path class="st4" d="M231.8,162.9l35.8,23v-47.7L231.8,162.9z M267.6,17.2l-130.8,85.2l83.2,53.1l47.6-32.1V78L205,119.8v-15
		l62.6-41.7V17.2z"/>
	<polygon class="st2" points="136.3,102.5 136.3,270.3 269.4,355 269.4,278.6 197.1,232.5 197.1,217.4 269.4,263.6 269.4,187.3 
		220,155.8 	"/>
</g>
<g id="negro" class="st0">
	<path class="st3" d="M454.1,163.7h15.5v62c0,20.1-10,29.7-26.8,29.7c-16.5,0-26.6-10.6-26.6-30.5v-61.2h15.5v-19.9h-52v19.9h14.2
		v62.4c0,33.4,19.9,49.6,48.8,49.6c28.5,0,48.4-16.1,48.4-50v-62h14.2v-19.9h-51.4v19.9H454.1z"/>
	<polygon class="st3" points="514.3,180.8 535.3,180.8 535.3,163.1 559.3,163.1 559.3,253.4 543.2,253.4 543.2,273.3 597.7,273.3 
		597.7,253.4 581.6,253.4 581.6,163.1 605.6,163.1 605.6,180.8 626.6,180.8 626.6,143.8 514.3,143.8 	"/>
	<polygon class="st3" points="714,253.6 675.4,253.6 675.4,217 714.6,217 714.6,198.1 675.4,198.1 675.4,163.5 713.8,163.5 
		713.8,180.8 735,180.8 735,143.8 638.4,143.8 638.4,163.7 653.2,163.7 653.2,253.4 638.4,253.4 638.4,273.3 735.2,273.3 
		735.2,236.3 714,236.3 	"/>
	<path class="st3" d="M870.2,253.2v-25.3h-21.3V244c-3.7,2.9-7.6,5.3-11.9,7.2c-3.9,1.7-8,2.9-12.5,3.4c-0.6,0.1-1.3,0.1-1.9,0.2
		c-1,0.1-2,0.1-3.1,0.2c-0.6,0-1.1,0-1.7,0.1c-27.1-0.2-45-20.7-45.1-46.4c0.1-25.8,18-46.2,45.1-46.4c0.6,0,1.1,0,1.7,0.1
		c1.1,0,2.1,0.1,3.1,0.2c0.6,0,1.3,0.1,1.9,0.2c4.4,0.6,8.6,1.8,12.5,3.4c4.3,1.8,8.3,4.2,11.9,7.2v16.1h21.3v-25.4l0,0l0,0
		c-6.1-6.7-13.5-12.1-21.9-16c-5.3-2.6-11.6-4.5-18.6-5.6c-0.8-0.1-1.6-0.2-2.3-0.3c-1-0.1-2.1-0.2-3.2-0.3c-0.4,0-0.7-0.1-1.1-0.1
		c-1.6-0.1-3.2-0.2-4.8-0.2c-0.1,0-0.1,0-0.2,0c-0.1,0-0.2,0-0.2,0c-2.2,0-4.4,0.1-6.5,0.3c-0.5,0-0.9,0.1-1.4,0.1
		c-1.2,0.1-2.3,0.3-3.4,0.4c-31.7,4.5-54,27.1-56.5,60.1c-0.2,2-0.3,4-0.3,6.2c0,2.1,0.1,4.1,0.3,6.2c2.5,32.9,24.8,55.6,56.5,60.1
		c1.1,0.2,2.3,0.3,3.4,0.4c0.5,0.1,0.9,0.1,1.4,0.1c2.1,0.2,4.3,0.3,6.5,0.3c0.1,0,0.2,0,0.2,0s0.1,0,0.2,0c1.6,0,3.2-0.1,4.8-0.2
		c0.4,0,0.7-0.1,1.1-0.1c1.1-0.1,2.1-0.2,3.2-0.3c0.8-0.1,1.6-0.2,2.3-0.3c7.1-1.1,13.3-3,18.6-5.6
		C856.7,265.4,864.1,259.9,870.2,253.2L870.2,253.2L870.2,253.2L870.2,253.2L870.2,253.2z"/>
	<path class="st3" d="M389.6,317v62.5h24c20.4,0,33.2-12,33.2-31.3c0-19.2-12.8-31.3-33.2-31.3L389.6,317L389.6,317z M379.8,308.4
		h33.7c25,0,42.9,16,42.9,39.8S438.5,388,413.5,388h-24v48h-9.7V308.4z"/>
	<path class="st3" d="M557.8,388.4c0-24.2-16.6-41.2-40-41.2c-23.4,0-40,17-40,41.2s16.6,41.2,40,41.2
		C541.3,429.6,557.8,412.6,557.8,388.4 M468.3,388.4c0-29,20.6-49.6,49.6-49.6c29,0,49.6,20.6,49.6,49.6c0,29.2-20.6,49.6-49.6,49.6
		C488.9,438,468.3,417.6,468.3,388.4"/>
	<path class="st3" d="M644.6,411.3c0,16-12,26.7-28.6,26.7c-18.3,0-31.8-12.2-31.8-30.5h9.5c0,14.3,8.6,22.5,22.3,22.5
		c11.2,0,19.3-7.1,19.3-18.7c0-29.7-50.1-10.5-50.1-47.5c0-14.9,12-25,28.2-25c18.1,0,30.3,11.6,30.3,30.3h-9.3
		c0-14.3-8.2-22.3-21-22.3c-11.6,0-19.4,6.3-19.4,17C593.9,392.8,644.6,373.2,644.6,411.3"/>
	<path class="st3" d="M751.5,386.2c0-22.7-16.6-38.9-40-38.9s-40,16.2-40,38.9c0,22.9,16.6,38.9,40,38.9
		C734.9,425,751.5,409,751.5,386.2 M712.6,462c23.6,0,38.9-16.2,38.9-41.2v-8c-8,12.8-22.1,20.6-40,20.6c-29,0-49.6-19.4-49.6-47.3
		c0-27.6,20.6-47.3,49.6-47.3c17.9,0,32,7.8,40,20.8v-18.9h9.5v80c0,29.2-17.7,49.6-48.4,49.6c-25.9,0-47.3-15.1-49.2-40h9.7
		C674.3,450.4,692.8,462,712.6,462"/>
	<polygon class="st3" points="785.8,340.8 795.3,340.8 795.3,354.5 827,340.8 827,350.3 795.3,363.9 795.3,436.1 785.8,436.1 	"/>
	<path class="st3" d="M923,388.4c0-24.2-16.6-41.2-40-41.2s-40,17-40,41.2s16.6,41.2,40,41.2S923,412.6,923,388.4 M833.5,388.4
		c0-29,20.6-49.6,49.6-49.6c17.9,0,32,8.2,40,21.7v-19.8h9.5V436H923v-19.8c-8,13.5-22.1,21.7-40,21.7
		C854,438,833.5,417.6,833.5,388.4"/>
	<path class="st3" d="M1042,388.4c0-24.2-16.6-41.2-40-41.2s-40,17-40,41.2s16.6,41.2,40,41.2S1042,412.6,1042,388.4 M952.4,388.4
		c0-29,20.6-49.6,49.6-49.6c17.9,0,32,8.2,40,21.7v-52.2h9.5V436h-9.5v-19.8c-8,13.5-22.1,21.7-40,21.7
		C973,438,952.4,417.6,952.4,388.4"/>
	<path class="st3" d="M1160.9,388.4c0-24.2-16.6-41.2-40-41.2s-40,17-40,41.2s16.6,41.2,40,41.2S1160.9,412.6,1160.9,388.4
		 M1071.3,388.4c0-29,20.6-49.6,49.6-49.6s49.6,20.6,49.6,49.6c0,29.2-20.6,49.6-49.6,49.6S1071.3,417.6,1071.3,388.4"/>
	<polygon class="st5" points="76,141.4 76,232.1 63.2,240.3 63.2,149.6 42.9,162.5 3.4,187.7 3.4,355 136.1,270.4 136.1,103.1 	"/>
	<polygon class="st3" points="3.1,78.9 42.8,104.2 42.8,162.2 63.1,149.3 63.1,240.3 76,232.1 76,141 136.4,102.6 3.1,17.7 	"/>
	<path class="st5" d="M232.1,163.1l35.9,23.1v-47.7L232.1,163.1z M268,17.2l-131,85.3l83.4,53.1l47.7-32.1V78.1l-62.7,41.8v-15
		L268,63.2V17.2z"/>
	<polygon class="st3" points="136.4,102.6 136.4,270.6 269.8,355.5 269.8,279 197.3,232.8 197.3,217.6 269.8,263.9 269.8,187.5 
		220.3,156 	"/>
</g>
<g id="color">
	<polygon class="st6" points="76.1,140.7 76.1,231.8 63.2,240.1 63.2,148.9 42.9,161.9 3.1,187.2 3.1,355.4 136.6,270.4 
		136.6,102.2 	"/>
	<polygon points="3.1,78.5 42.9,103.8 42.9,161.9 63.2,149 63.2,240.1 76.1,231.8 76.1,140.7 136.6,102.2 3.1,17.2 	"/>
	<polygon class="st6" points="270.1,17.2 136.6,102.2 220.6,155.6 270.1,124.1 270.1,78.5 205.4,119.7 205.4,104.7 270.1,63.4 	"/>
	<polygon class="st6" points="232.5,163.2 270.1,187.2 270.1,139.1 	"/>
	<polygon points="136.6,102.2 136.6,270.4 270.1,355.4 270.1,278.8 197.6,232.5 197.6,217.4 270.1,263.7 270.1,187.2 220.6,155.6 	
		"/>
	<path d="M454.4,163.7H470v61.9c0,20.1-10,29.7-26.8,29.7c-16.5,0-26.5-10.6-26.5-30.5v-61.2h15.5v-19.9h-51.9v19.9h14.2V226
		c0,33.4,19.9,49.6,48.8,49.6c28.5,0,48.4-16.1,48.4-50v-61.9h14.2v-19.9h-51.3v19.9H454.4z"/>
	<polygon points="514.6,180.8 535.6,180.8 535.6,163.1 559.6,163.1 559.6,253.3 543.5,253.3 543.5,273.2 598,273.2 598,253.3 
		581.9,253.3 581.9,163.1 605.8,163.1 605.8,180.8 626.9,180.8 626.9,143.8 514.6,143.8 	"/>
	<polygon points="714.2,253.5 675.7,253.5 675.7,217 714.8,217 714.8,198.1 675.7,198.1 675.7,163.5 714,163.5 714,180.8 
		735.3,180.8 735.3,143.8 638.7,143.8 638.7,163.7 653.4,163.7 653.4,253.3 638.7,253.3 638.7,273.2 735.5,273.2 735.5,236.2 
		714.2,236.2 	"/>
	<path d="M870.4,253.1v-25.3h-21.3v16.1c-3.7,2.9-7.6,5.3-11.9,7.2c-3.9,1.7-8,2.9-12.5,3.4c-0.6,0.1-1.3,0.1-1.9,0.2
		c-1,0.1-2,0.1-3.1,0.2c-0.6,0-1.1,0-1.7,0.1c-27-0.2-44.9-20.7-45-46.4c0.1-25.7,18-46.2,45-46.4c0.6,0,1.1,0,1.7,0.1
		c1.1,0,2.1,0.1,3.1,0.2c0.6,0,1.3,0.1,1.9,0.2c4.4,0.6,8.6,1.8,12.5,3.4c4.3,1.8,8.3,4.2,11.9,7.2v16.1h21.3V164l0,0l0,0
		c-6.1-6.7-13.5-12.1-21.9-16c-5.3-2.6-11.6-4.5-18.6-5.6c-0.8-0.1-1.6-0.2-2.3-0.3c-1-0.1-2.1-0.2-3.2-0.3c-0.4,0-0.7-0.1-1.1-0.1
		c-1.6-0.1-3.2-0.2-4.8-0.2c-0.1,0-0.1,0-0.2,0c-0.1,0-0.2,0-0.2,0c-2.2,0-4.4,0.1-6.5,0.3c-0.5,0-0.9,0.1-1.4,0.1
		c-1.2,0.1-2.3,0.3-3.4,0.4c-31.7,4.5-54,27.1-56.5,60.1c-0.2,2-0.3,4-0.3,6.1s0.1,4.1,0.3,6.2c2.5,32.9,24.8,55.6,56.5,60
		c1.1,0.2,2.3,0.3,3.4,0.4c0.5,0.1,0.9,0.1,1.4,0.1c2.1,0.2,4.3,0.3,6.5,0.3c0.1,0,0.2,0,0.2,0s0.1,0,0.2,0c1.6,0,3.2-0.1,4.8-0.2
		c0.4,0,0.7-0.1,1.1-0.1c1.1-0.1,2.1-0.2,3.2-0.3c0.8-0.1,1.6-0.2,2.3-0.3c7.1-1.1,13.3-3,18.6-5.6
		C856.8,265.3,864.3,259.9,870.4,253.1L870.4,253.1L870.4,253.1L870.4,253.1L870.4,253.1z"/>
	<path d="M389.9,316.9v62.5h24c20.4,0,33.1-12,33.1-31.2S434.2,317,413.9,317L389.9,316.9L389.9,316.9z M380.2,308.3h33.7
		c25,0,42.9,16,42.9,39.8s-17.9,39.8-42.9,39.8h-24v48h-9.7V308.3z"/>
	<path d="M558.2,388.3c0-24.2-16.6-41.1-40-41.1c-23.4,0-40,17-40,41.1c0,24.2,16.6,41.1,40,41.1
		C541.6,429.5,558.2,412.5,558.2,388.3 M468.6,388.3c0-29,20.6-49.5,49.5-49.5c29,0,49.5,20.6,49.5,49.5c0,29.1-20.6,49.5-49.5,49.5
		C489.2,437.8,468.6,417.5,468.6,388.3"/>
	<path d="M644.8,411.2c0,16-12,26.7-28.6,26.7c-18.3,0-31.8-12.2-31.8-30.5h9.5c0,14.3,8.6,22.5,22.3,22.5c11.2,0,19.2-7,19.2-18.7
		c0-29.7-50.1-10.5-50.1-47.4c0-14.9,12-25,28.2-25c18.1,0,30.3,11.6,30.3,30.3h-9.3c0-14.3-8.2-22.3-21-22.3
		c-11.6,0-19.4,6.3-19.4,17C594.2,392.7,644.8,373.1,644.8,411.2"/>
	<path d="M751.7,386c0-22.7-16.6-38.9-40-38.9s-40,16.2-40,38.9c0,22.9,16.6,38.9,40,38.9C735.1,424.9,751.7,408.9,751.7,386
		 M712.8,461.8c23.6,0,38.9-16.2,38.9-41.1v-8c-8,12.8-22.1,20.6-40,20.6c-29,0-49.5-19.4-49.5-47.2c0-27.6,20.6-47.2,49.5-47.2
		c17.9,0,32,7.8,40,20.8v-18.9h9.5v80c0,29.1-17.7,49.5-48.4,49.5c-25.9,0-47.2-15-49.1-40h9.7C674.6,450.2,693,461.8,712.8,461.8"
		/>
	<polygon points="786,340.7 795.5,340.7 795.5,354.4 827.1,340.7 827.1,350.2 795.5,363.7 795.5,435.9 786,435.9 	"/>
	<path d="M923.2,388.3c0-24.2-16.6-41.1-40-41.1s-40,17-40,41.1c0,24.2,16.6,41.1,40,41.1C906.6,429.5,923.2,412.5,923.2,388.3
		 M833.6,388.3c0-29,20.6-49.5,49.5-49.5c17.9,0,32,8.2,40,21.7v-19.8h9.5v95.2h-9.5v-19.8c-8,13.5-22.1,21.7-40,21.7
		C854.2,437.8,833.6,417.5,833.6,388.3"/>
	<path d="M1042,388.3c0-24.2-16.6-41.1-40-41.1s-40,17-40,41.1c0,24.2,16.6,41.1,40,41.1C1025.5,429.5,1042,412.5,1042,388.3
		 M952.5,388.3c0-29,20.6-49.5,49.5-49.5c17.9,0,32,8.2,40,21.7v-52.2h9.5v127.6h-9.5v-19.8c-8,13.5-22.1,21.7-40,21.7
		C973.1,437.8,952.5,417.5,952.5,388.3"/>
	<path d="M1160.9,388.3c0-24.2-16.6-41.1-40-41.1s-40,17-40,41.1c0,24.2,16.6,41.1,40,41.1S1160.9,412.5,1160.9,388.3 M1071.4,388.3
		c0-29,20.6-49.5,49.5-49.5s49.5,20.6,49.5,49.5c0,29.1-20.6,49.5-49.5,49.5S1071.4,417.5,1071.4,388.3"/>
</g>
</svg>
